PathFileType	4	(X/Y/Z)	C:/Users/beibeiliu/ov580/test_trc\sequence.4_training_dense_right.trc
DataRate	CameraRate	NumFrames	NumMarkers	Units	OrigDataRate	OrigDataStartFrame	OrigNumFrames
120	120	22	19	mm	120	226	258
Frame#	Time	ThumbCMC			ThumbMCP			ThumbIP			ThumbTip			IndexMCP			IndexPIP			IndexTip			MiddleMCP			MiddlePIP			MiddleTip			RingMCP			RingPIP			RingTip			PinkyMCP			PinkyPIP			PinkyTip			BackHand1			BackHand2			BackHand3	
		X0	Y0	Z0	X1	Y1	Z1	X2	Y2	Z2	X3	Y3	Z3	X4	Y4	Z4	X5	Y5	Z5	X6	Y6	Z6	X7	Y7	Z7	X8	Y8	Z8	X9	Y9	Z9	X10	Y10	Z10	X11	Y11	Z11	X12	Y12	Z12	X13	Y13	Z13	X14	Y14	Z14	X15	Y15	Z15	X16	Y16	Z16	X17	Y17	Z17	X18	Y18	Z18	
225	1.875	143.616	-30.5185	16.9984	128.896	-39.4233	-0.975536	119.603	-41.7207	-22.6949	107.528	-45.3678	-37.0571	154.646	-29.2712	-50.4078	146.574	-33.168	-72.2668	149.694	-37.1797	-92.7299	175.926	-33.9875	-56.6858	174.989	-38.6649	-79.5442	179.365	-43.0664	-100.534	197.699	-40.4954	-49.0117	195.897	-44.643	-67.3656	204.131	-48.465	-86.3394	210.932	-45.8013	-34.505	221.429	-51.2367	-45.0538	229.668	-47.8791	-63.5347	191.166	-26.5396	-6.6213	195.804	-21.4061	19.6322	168.759	-14.2883	7.61318	
226	1.88333	146.337	-32.2107	20.6259	127.28	-39.3159	-4.24885	118.306	-42.7338	-20.4555	105.224	-44.9536	-37.4137	151.585	-28.8755	-46.8958	151.79	-33.458	-70.9256	151.261	-36.0602	-90.6703	178.878	-34.9757	-57.5226	175.401	-38.6604	-79.7439	181.322	-44.5362	-101.572	195.696	-40.5876	-49.4638	197.978	-45.0935	-65.6115	200.424	-48.6963	-85.5716	210.961	-47.0204	-29.7464	217.183	-51.0276	-46.3984	226.814	-47.9057	-59.7109	195.78	-25.1781	-6.54262	192.084	-20.785	22.1335	168.002	-16.708	6.68059	
227	1.89167	146.371	-32.3275	20.4039	126.429	-40.3621	-1.26016	120.115	-43.4266	-22.9103	109.776	-46.312	-35.3589	155.067	-29.2236	-51.2032	151.01	-32.9537	-74.0186	150.446	-35.9305	-92.9191	178.614	-33.9764	-56.5883	175.761	-38.1778	-78.4166	180.741	-43.8282	-100.523	195.001	-40.5107	-48.8296	196.139	-44.1334	-67.4823	202.812	-48.5432	-88.9668	211.084	-47.5195	-32.2935	218.441	-51.8193	-48.7964	228.566	-51.2125	-61.1387	193.947	-25.858	-5.04349	192.301	-19.9931	23.0022	170.995	-16.1292	9.28091	
228	1.9	140.425	-31.1994	16.1896	125.264	-39.4589	-0.277988	120.231	-42.9005	-23.5306	107.426	-46.1482	-38.4625	154.728	-29.1489	-48.2955	151.358	-30.9185	-69.1584	147.051	-33.254	-95.3164	178.199	-33.8367	-52.7228	176.437	-38.1501	-76.6105	177.215	-42.0919	-101.785	192.379	-39.9968	-44.8137	198.702	-45.419	-68.7819	200.402	-47.8846	-89.7386	212.924	-48.7853	-29.1391	216.268	-51.6256	-44.053	224.217	-48.9494	-62.8335	191.898	-24.7115	-2.19549	190.584	-19.9191	21.8808	165.354	-15.1365	5.1716	
229	1.90833	141.129	-31.7637	18.9515	127.187	-40.5173	0.93515	117.64	-42.6191	-21.6557	107.666	-46.8423	-35.225	153.365	-27.139	-48.6793	150.854	-29.7704	-69.5192	150.364	-32.7023	-96.2781	172.644	-32.1725	-52.781	176.56	-37.5151	-80.154	177.044	-42.7239	-103.118	192.116	-38.9603	-49.3832	196.479	-44.3928	-69.5482	200.051	-48.0058	-85.2698	212.831	-48.4726	-33.6667	214.617	-51.7529	-50.5392	224.927	-51.0789	-64.8766	193.752	-26.6311	-6.19431	190.69	-20.1318	23.877	165.739	-14.7729	6.9422	
230	1.91667	145.89	-32.3948	16.1363	128.889	-40.9924	-3.50006	118.886	-44.2324	-21.5567	109.045	-46.5101	-40.5476	151.812	-26.2039	-48.308	151.431	-30.2835	-68.5059	146.771	-32.0316	-91.7176	176.617	-31.92	-52.8736	174.379	-35.72	-79.5869	175.798	-40.6928	-99.7441	190.76	-38.7955	-46.5392	196.787	-44.6814	-70.1961	197.724	-48.3731	-90.6566	210.682	-48.1302	-34.7871	217.072	-52.3597	-49.5394	222.689	-51.8431	-61.5454	195.04	-26.656	-1.95181	195.02	-21.1924	23.8356	166.017	-16.7306	8.38345	
231	1.925	141.925	-32.4238	17.8417	125.765	-40.4473	-3.47414	115.329	-43.4367	-20.7207	108.775	-46.7931	-39.5738	149.832	-25.8506	-48.4734	147.206	-29.0462	-73.8153	148.452	-32.1788	-95.124	177.483	-32.8972	-54.2619	175.83	-36.3311	-80.4916	179.663	-41.0892	-100.42	191.165	-39.3849	-47.3152	195.031	-43.7956	-67.3221	200.409	-49.2063	-86.8664	213.232	-47.9385	-31.3764	218.252	-52.5827	-49.5411	222.21	-48.3471	-63.4378	193.12	-26.0556	-3.46964	194.35	-20.5988	19.7089	169.612	-16.9229	5.63645	
232	1.93333	145.871	-32.9917	19.0391	129.594	-42.3491	-2.04762	117.221	-43.7382	-24.7679	105.53	-47.7853	-39.5915	152.568	-25.787	-51.9391	149.914	-29.6837	-73.5792	148.499	-31.5175	-93.868	177.468	-32.2484	-58.0034	176.827	-35.1428	-78.0911	180.876	-41.3576	-106.395	196.068	-39.0488	-49.4744	195.374	-43.5049	-72.3479	198.058	-47.3192	-90.8474	211.184	-46.2	-34.5732	216.904	-50.2419	-51.2707	221.608	-49.2795	-62.2678	195.293	-26.3578	-7.18681	195.942	-21.2264	23.3406	165.403	-15.7057	7.63907	
233	1.94167	145.857	-33.3025	18.2653	127.723	-41.4239	-2.55663	117.547	-43.6065	-25.2837	104.986	-47.8649	-36.6262	152.266	-26.2935	-48.1568	149.668	-28.0952	-74.5615	148.353	-31.6536	-92.0136	173.907	-29.7004	-55.5738	175.139	-34.7332	-78.6139	177.866	-40.1122	-105.772	194.786	-38.4836	-48.1396	198.891	-43.3205	-68.3321	201.476	-47.1412	-90.9754	211.572	-47.6448	-31.5452	219.538	-51.1355	-51.4493	226.296	-49.6691	-62.0736	195.674	-25.8333	-2.4954	194.187	-20.4321	18.9643	170.55	-16.9945	7.01587	
234	1.95	146.605	-34.2228	18.6965	130.839	-41.915	-5.18446	118.193	-44.5711	-25.4364	109.606	-47.8282	-40.4175	156.112	-25.3666	-52.3671	152.798	-28.103	-73.5021	145.81	-30.6259	-95.1438	178.035	-30.2574	-53.8035	176.671	-33.5984	-76.8946	179.527	-40.6672	-104.903	194.817	-37.3243	-47.5296	199.368	-41.6825	-67.6542	199.518	-45.643	-92.7692	214.994	-47.991	-32.6453	216.003	-49.7399	-49.0788	223.654	-48.7124	-63.9402	195.967	-25.1124	-4.72298	195.099	-21.3045	19.7606	171.33	-17.7555	5.92615	
235	1.95833	146.424	-33.1372	14.4579	130.12	-42.2999	-3.11653	117.65	-44.5569	-25.6454	106.634	-48.5006	-38.5893	152.868	-25.6496	-50.2233	149.325	-27.3654	-73.9002	151.687	-31.7492	-92.1617	177.567	-29.583	-55.094	178.392	-34.2814	-80.7886	180.802	-40.0247	-101.696	196.406	-38.4242	-45.2299	201.076	-42.4399	-66.98	201.622	-46.8816	-88.4943	210.981	-46.0745	-32.581	221.933	-51.5653	-50.9368	226.863	-51.2451	-63.1733	193.035	-24.5982	-3.55287	195.158	-21.6284	19.9002	171.108	-15.9028	4.99932	
236	1.96667	146.01	-32.6844	15.0685	130.21	-42.5446	-1.53073	120.972	-44.7975	-25.937	109.735	-48.1392	-42.6513	156.368	-25.5747	-50.1445	149.405	-27.8961	-72.4829	146.817	-30.4822	-96.2238	178.453	-30.1231	-55.1097	177.419	-33.5715	-77.9313	183.197	-41.1803	-105.929	198.026	-38.7869	-48.9257	201.663	-42.3585	-67.753	200.575	-46.8187	-87.9167	212.662	-46.048	-36.7477	217.784	-50.9384	-51.2569	227.215	-50.0972	-68.6657	198.277	-28.0322	-5.14875	195.444	-23.6225	22.8252	171.905	-17.5563	4.14863	
237	1.975	145.481	-32.7985	14.704	128.006	-42.1901	-3.64158	120.251	-44.7173	-24.9089	110.599	-48.9175	-40.8742	157.136	-25.0249	-48.9385	154.832	-28.5565	-70.8652	152.051	-30.509	-97.883	179.755	-29.7098	-57.8927	180.344	-34.4721	-81.0418	183.069	-40.1156	-106.216	197.919	-38.1436	-50.8706	198.832	-42.3364	-68.5231	203.015	-47.3621	-88.3811	213.703	-47.1617	-35.1329	222.645	-51.8492	-50.5995	227.294	-51.9916	-67.1093	194.98	-24.9769	-5.99515	194.616	-21.9166	20.1937	172.029	-15.738	6.6012	
238	1.98333	147.83	-35.4805	18.4238	132.514	-44.3249	-4.04785	118.155	-46.0795	-23.4235	109.17	-49.979	-38.1623	158.73	-26.1935	-49.7567	150.874	-27.5216	-70.2134	150.431	-30.9315	-94.2525	180.454	-30.192	-55.7816	183.076	-35.8479	-82.7121	183.534	-39.5222	-103.178	197.619	-38.3681	-48.8678	201.543	-43.3058	-68.6187	203.38	-49.0298	-93.6372	216.462	-49.1151	-34.6698	218.839	-51.4317	-49.6219	227.391	-49.1911	-66.4823	195.616	-26.1866	-3.39939	198.57	-26.3424	22.3577	171.797	-17.2884	5.4265	
239	1.99167	146.147	-36.6747	14.3387	134.194	-45.1582	-2.98718	120.815	-47.9512	-22.4482	110.22	-49.8385	-42.1501	154.971	-26.2644	-48.0231	153.29	-28.771	-70.0535	150.6	-31.1037	-94.1696	181.268	-31.5375	-55.241	184.349	-35.2136	-78.2204	181.654	-39.7638	-104.85	200.332	-39.9531	-50.7998	202.354	-44.8215	-71.4906	204.317	-49.7754	-93.3113	216.24	-49.6738	-31.8248	218.439	-52.4704	-49.3649	231.223	-51.7064	-66.6876	195.272	-29.8524	-6.76545	195.787	-26.3073	19.6827	173.351	-20.3046	8.22631	
240	2	151.299	-38.5128	15.5579	130.557	-45.3989	-4.53917	122.694	-48.3409	-22.5138	110.205	-51.4481	-37.4545	159.602	-28.0604	-51.5857	156.358	-30.3597	-74.6935	151.396	-33.2504	-92.9169	183.32	-33.3539	-57.0224	182.403	-36.4685	-78.2077	181.7	-41.6173	-107.15	199.452	-41.5655	-48.8481	200.966	-45.7474	-72.1805	201.291	-49.4511	-89.2673	219.26	-50.2392	-35.6606	219.757	-52.5404	-49.8833	228.046	-53.8449	-66.0676	199.863	-31.1065	-2.80654	201.108	-26.9282	23.9843	175.027	-20.086	5.87093	
241	2.00833	150.866	-38.1671	14.9496	131.594	-46.6354	-6.12007	123.962	-48.5513	-25.5213	113.711	-51.4886	-42.8085	159.046	-29.2843	-49.5478	156.533	-30.7518	-70.7352	151.265	-34.0673	-93.0601	182.294	-33.6459	-55.8502	181.592	-36.4273	-79.1239	187.699	-43.2918	-102.501	200.299	-41.4328	-48.7512	202.975	-46.3281	-72.0722	205.965	-51.8889	-89.3262	217.537	-50.4923	-33.2665	221.47	-54.1299	-50.04	231.708	-54.7063	-68.9235	199.175	-29.6206	-3.04792	197.929	-28.2315	22.4195	175.159	-21.15	4.60728	
242	2.01667	150.981	-38.685	14.1478	136.127	-47.3946	-5.18198	122.278	-50.3206	-24.2994	116.08	-53.9542	-38.8125	157.191	-28.6486	-46.4528	156.31	-31.1617	-70.7464	155.632	-34.8412	-93.5743	183.981	-34.7552	-54.6234	181.64	-37.5875	-81.5263	187.943	-43.4705	-102.102	201.286	-43.0232	-46.2916	202.405	-46.4518	-70.9404	207.656	-52.936	-93.0617	218.332	-51.2356	-31.5691	224.654	-55.1778	-51.6616	231.455	-53.3981	-69.2469	197.426	-31.9202	-5.77224	200.235	-28.2044	23.0348	174.665	-22.4425	9.3006	
243	2.025	150.174	-39.555	18.9527	134.415	-47.7708	-2.74654	124.895	-49.9997	-24.5948	113.317	-53.2846	-38.9073	159.865	-29.2168	-52.3256	155.831	-31.6702	-71.3859	154.572	-34.1025	-93.2617	184.65	-35.1419	-53.0469	185.611	-37.6474	-77.9766	187.643	-43.6812	-103.668	200.155	-42.9274	-48.722	201.599	-47.0637	-69.882	204.931	-51.7351	-89.3164	215.71	-51.158	-33.9914	222.196	-54.8333	-52.2676	228.456	-56.0133	-65.7528	202.231	-32.0303	-6.66986	200.166	-29.2303	21.1034	174.12	-21.8668	7.29612	
244	2.03333	151.526	-40.0776	19.4206	136.824	-47.6587	-4.63845	124.648	-49.8627	-26.7721	113.874	-53.1214	-40.0674	162.334	-30.5124	-50.6284	158.454	-31.7972	-72.9791	155.938	-34.6353	-96.5214	182.604	-33.8368	-53.7297	186.667	-39.064	-78.815	187.571	-44.9497	-105.378	203.512	-42.408	-48.5117	206.824	-47.5107	-67.931	206.696	-52.188	-92.8806	219.298	-51.182	-32.9807	222.69	-54.4688	-50.947	232.945	-55.7817	-69.096	199.691	-29.4334	-3.33835	200.921	-29.1854	21.9957	174.249	-22.037	3.72796	
245	2.04167	152.145	-39.16	19.1872	136.697	-46.6435	-4.61492	127.209	-49.2621	-22.382	117.275	-53.6992	-39.9286	162.263	-30.3323	-48.0477	156.668	-31.7623	-69.5871	158.32	-35.6369	-96.4572	186.732	-34.0715	-55.7008	186.707	-38.6159	-77.6993	187.951	-43.1179	-101.826	205.838	-43.1022	-47.1977	204.936	-47.0456	-70.2539	208.424	-52.6549	-87.8852	221.928	-52.2574	-35.6002	223.349	-55.0623	-50.1604	230.803	-54.3328	-67.7195	201.181	-31.483	-6.82674	200.864	-28.1292	23.1279	174.637	-22.8731	7.30035	
246	2.05	150.12	-37.5452	17.1004	135.342	-45.6925	-4.74374	127.739	-49.5115	-23.2193	117.629	-52.548	-41.8669	162.348	-30.1852	-48.6358	157.463	-30.914	-73.4293	156.975	-33.3394	-92.9633	186.559	-33.8539	-57.0214	188.615	-38.4113	-79.5126	186.589	-44.6091	-105.461	200.579	-40.8641	-47.7186	207.359	-46.2339	-70.1084	209.59	-52.1842	-89.1646	219.126	-51.2619	-33.6762	222.771	-53.8162	-47.0762	233.027	-52.7566	-68.2825	204.27	-30.5119	-5.08049	202.525	-27.8315	22.7185	174.15	-21.6929	7.78285	
